<?xml version="1.0" encoding="UTF-8"?>
<svg id="Layer_2" data-name="Layer 2" xmlns="http://www.w3.org/2000/svg" viewBox="0 0 45.08 21.3">
  <defs>
    <style>
      .cls-1 {
        fill: #231f20;
        stroke-width: 0px;
      }
    </style>
  </defs>
  <g id="Layer_1-2" data-name="Layer 1">
    <g>
      <g>
        <path class="cls-1" d="m23.33,9.61v8.55h-1.55v-8.53c0-.42-.33-.78-.75-.8-.44-.02-.81.34-.81.78v8.55h-1.55V5.7h0c.86,0,1.55.7,1.55,1.55v.16c.24-.09.5-.13.78-.13s.53.05.78.13c.66.23,1.19.76,1.42,1.42.09.24.13.5.13.78Z"/>
        <path class="cls-1" d="m38.86,9.61v8.55h-1.55v-8.55c0-.43-.35-.78-.78-.78s-.78.35-.78.78v8.55h-1.55v-8.55s0,0,0,0c0-.43-.35-.77-.78-.77s-.78.35-.78.78v8.55h-1.55v-8.55c0-.27.05-.53.13-.78.23-.66.76-1.19,1.42-1.42.24-.09.5-.13.78-.13s.53.05.78.13c.29.1.55.26.78.46.22-.2.49-.36.78-.46.24-.09.5-.13.78-.13s.53.05.78.13c.66.23,1.19.76,1.42,1.42.09.24.13.5.13.78Z"/>
        <path class="cls-1" d="m10.75,8.83c-.23-.66-.76-1.19-1.42-1.42-.24-.09-.5-.13-.78-.13s-.53.05-.78.13c-.66.23-1.19.76-1.42,1.42-.09.24-.13.5-.13.78v6.26s0,.04,0,.06c0,.02,0,.05,0,.07,0,.02,0,.04,0,.06,0,.01,0,.03,0,.04,0,0,0,.01,0,.02,0,0,0,.02,0,.02,0,.03,0,.06.01.09,0,.02,0,.04,0,.05,0,.02,0,.04.01.06,0,0,0,.02,0,.03,0,0,0,.02,0,.03,0,.04.02.08.03.12,0,.02,0,.03.01.05,0,.02,0,.03.01.05.23.68.76,1.22,1.44,1.46.11.04.23.07.36.09h.84c.12-.02.24-.05.36-.09.02,0,.04-.02.06-.02.02,0,.04-.02.06-.02.04-.02.09-.04.13-.06.01,0,.03-.01.04-.02,0,0,.02,0,.03-.01.01,0,.03-.02.04-.02.02-.01.04-.02.06-.03,0,0,.01,0,.02-.01,0,0,.02-.01.03-.02,0,0,.02-.01.03-.02,0,0,.02-.01.03-.02,0,0,.02-.01.02-.02.01,0,.02-.02.04-.03.01,0,.03-.02.04-.03.04-.03.08-.06.11-.09,0,0,.01,0,.02-.01.04-.04.08-.07.12-.11,0,0,.02-.02.02-.02.02-.02.03-.03.05-.05.01-.01.02-.03.04-.04,0,0,.01-.02.02-.03,0,0,.01-.02.02-.03.01-.01.02-.03.03-.04.02-.03.05-.06.07-.09,0,0,.01-.02.02-.03,0-.01.02-.03.03-.04.02-.02.03-.05.04-.07,0,0,.01-.02.02-.03,0-.01.02-.03.02-.04,0-.01.01-.02.02-.03,0-.01.01-.03.02-.04,0-.01.01-.02.02-.03.01-.03.03-.05.04-.08,0,0,0-.01,0-.02.03-.07.06-.14.08-.22,0-.02,0-.03.01-.05,0-.02.01-.03.01-.05.01-.04.02-.08.03-.12,0-.02,0-.04.01-.05,0-.02,0-.04.01-.06,0-.02,0-.04,0-.05,0-.03,0-.06.01-.09,0,0,0-.02,0-.02,0,0,0-.01,0-.02,0-.01,0-.03,0-.04,0-.02,0-.04,0-.06,0-.02,0-.05,0-.07,0-.02,0-.04,0-.06v-.82h-1.55v.82c0,.35-.23.64-.54.74,0,0-.02,0-.02,0,0,0-.01,0-.02,0,0,0,0,0-.01,0,0,0,0,0,0,0,0,0-.01,0-.02,0,0,0,0,0,0,0-.01,0-.02,0-.03,0-.01,0-.02,0-.03,0h0s-.01,0-.02,0c0,0-.02,0-.03,0-.01,0-.02,0-.04,0-.01,0-.03,0-.04,0,0,0-.02,0-.03,0,0,0,0,0,0,0,0,0,0,0-.01,0-.01,0-.02,0-.03,0-.01,0-.02,0-.03,0,0,0,0,0,0,0,0,0-.02,0-.02,0,0,0,0,0,0,0,0,0-.02,0-.02,0,0,0,0,0,0,0,0,0-.01,0-.02,0,0,0,0,0-.01,0-.31-.1-.54-.39-.54-.74v-2.37h3.11v-3.89c0-.27-.05-.53-.13-.78Zm-1.42,3.11h-1.56v-2.33c0-.43.35-.78.78-.78s.78.35.78.78v2.33Z"/>
        <path class="cls-1" d="m29.41,8.83c-.23-.66-.76-1.19-1.42-1.42-.24-.09-.5-.13-.78-.13s-.53.05-.78.13c-.66.23-1.19.76-1.42,1.42-.09.24-.13.5-.13.78v6.26s0,.04,0,.06c0,.02,0,.05,0,.07,0,.02,0,.04,0,.06,0,.01,0,.03,0,.04,0,0,0,.01,0,.02,0,0,0,.02,0,.02,0,.03,0,.06.01.09,0,.02,0,.04,0,.05,0,.02,0,.04.01.06,0,0,0,.02,0,.03,0,0,0,.02,0,.03,0,.04.02.08.03.12,0,.02,0,.03.01.05,0,.02,0,.03.01.05.23.68.76,1.22,1.44,1.46.11.04.23.07.36.09h.84c.12-.02.24-.05.36-.09.02,0,.04-.02.06-.02.02,0,.04-.02.06-.02.04-.02.09-.04.13-.06.01,0,.03-.01.04-.02,0,0,.02,0,.03-.01.01,0,.03-.02.04-.02.02-.01.04-.02.06-.03,0,0,.01,0,.02-.01,0,0,.02-.01.03-.02,0,0,.02-.01.03-.02,0,0,.02-.01.03-.02,0,0,.02-.01.02-.02.01,0,.02-.02.04-.03.01,0,.03-.02.04-.03.04-.03.08-.06.11-.09,0,0,.01,0,.02-.01.04-.04.08-.07.12-.11,0,0,.02-.02.02-.02.02-.02.03-.03.05-.05.01-.01.02-.03.04-.04,0,0,.01-.02.02-.03,0,0,.01-.02.02-.03.01-.01.02-.03.03-.04.02-.03.05-.06.07-.09,0,0,.01-.02.02-.03,0-.01.02-.03.03-.04.02-.02.03-.05.04-.07,0,0,.01-.02.02-.03,0-.01.02-.03.02-.04,0-.01.01-.02.02-.03,0-.01.01-.03.02-.04,0-.01.01-.02.02-.03.01-.03.03-.05.04-.08,0,0,0-.01,0-.02.03-.07.06-.14.08-.22,0-.02,0-.03.01-.05,0-.02.01-.03.01-.05.01-.04.02-.08.03-.12,0-.02,0-.04.01-.05,0-.02,0-.04.01-.06,0-.02,0-.04,0-.05,0-.03,0-.06.01-.09,0,0,0-.02,0-.02,0,0,0-.01,0-.02,0-.01,0-.03,0-.04,0-.02,0-.04,0-.06,0-.02,0-.05,0-.07,0-.02,0-.04,0-.06v-.82h-1.55v.82c0,.35-.23.64-.54.74,0,0-.02,0-.02,0,0,0-.01,0-.02,0,0,0,0,0-.01,0,0,0,0,0,0,0,0,0-.01,0-.02,0,0,0,0,0,0,0-.01,0-.02,0-.03,0-.01,0-.02,0-.03,0h0s-.01,0-.02,0c0,0-.02,0-.03,0-.01,0-.02,0-.04,0-.01,0-.03,0-.04,0,0,0-.02,0-.03,0,0,0,0,0,0,0,0,0,0,0-.01,0-.01,0-.02,0-.03,0-.01,0-.02,0-.03,0,0,0,0,0,0,0,0,0-.02,0-.02,0,0,0,0,0,0,0,0,0-.02,0-.02,0,0,0,0,0,0,0,0,0-.01,0-.02,0,0,0,0,0-.01,0-.31-.1-.54-.39-.54-.74v-2.37h3.11v-3.89c0-.27-.05-.53-.13-.78Zm-1.42,3.11h-1.56v-2.33c0-.43.35-.78.78-.78s.78.35.78.78v2.33Z"/>
        <path class="cls-1" d="m4.53,8.83c-.23-.66-.76-1.19-1.42-1.42-.24-.09-.5-.13-.78-.13s-.53.05-.78.13c-.66.23-1.19.76-1.42,1.42-.09.24-.13.5-.13.78v11.69h0c.86,0,1.55-.7,1.55-1.55v-1.72c.24.09.5.13.78.13s.53-.05.78-.13c.66-.23,1.19-.76,1.42-1.42.08-.23.13-.49.13-.75v-6.28c0-.26-.05-.51-.13-.75Zm-1.42,7c0,.43-.35.78-.78.78s-.78-.35-.78-.78v-6.22c0-.43.35-.78.78-.78s.78.35.78.78v6.22Z"/>
        <path class="cls-1" d="m44.95,8.83c-.23-.66-.76-1.19-1.42-1.42-.24-.09-.5-.13-.78-.13s-.53.05-.78.13c-.66.23-1.19.76-1.42,1.42-.09.24-.13.5-.13.78v11.69h0c.86,0,1.55-.7,1.55-1.55v-1.72c.24.09.5.13.78.13s.53-.05.78-.13c.66-.23,1.19-.76,1.42-1.42.08-.23.13-.49.13-.75v-6.28c0-.26-.05-.51-.13-.75Zm-1.42,7c0,.43-.35.78-.78.78s-.78-.35-.78-.78v-6.22c0-.43.35-.78.78-.78s.78.35.78.78v6.22Z"/>
        <path class="cls-1" d="m16.97,8.83c-.23-.66-.76-1.19-1.42-1.42-.24-.09-.5-.13-.78-.13s-.53.05-.78.13c-.66.23-1.19.76-1.42,1.42-.09.24-.13.5-.13.78v11.69h0c.86,0,1.55-.7,1.55-1.55v-1.72c.24.09.5.13.78.13s.53-.05.78-.13c.66-.23,1.19-.76,1.42-1.42.08-.23.13-.49.13-.75v-6.28c0-.26-.05-.51-.13-.75Zm-1.42,7c0,.43-.35.78-.78.78s-.78-.35-.78-.78v-6.22c0-.43.35-.78.78-.78s.78.35.78.78v6.22Z"/>
      </g>
      <path class="cls-1" d="m18.64,5.42c.08-.56.18-1.05.21-1.55.03-.49-.03-.99-.03-1.49.37.94.45,1.89.12,2.91.91-.7,1.19-1.58.81-2.53-.14-.34-.32-.66-.49-.98-.31-.6-.61-1.2-.91-1.78-1.3,1.37-1.2,4.35.29,5.42Z"/>
      <path class="cls-1" d="m22.4,2.38c-.12-.01-1.01-.09-1.68.53-.46.42-.56.93-.58,1.11.26-.09.84-.23.86-.2-.83.17-1.12.78-1.41,1.41.57.07,1.07-.05,1.49-.41.75-.65,1-1.53,1.32-2.43Z"/>
      <path class="cls-1" d="m17.88,5.13c-.07-.16-.18-.33-.32-.52-.31-.39-.67-.62-.91-.74.24.11.48.21.72.32-.03-.25-.11-.64-.37-1.03-.57-.87-1.55-1.05-1.74-1.08-.21,1.38,1.18,3.05,2.62,3.05Z"/>
    </g>
  </g>
</svg>